<svg xmlns="http://www.w3.org/2000/svg" version="1.1" xmlns:xlink="http://www.w3.org/1999/xlink" xmlns:svgjs="http://svgjs.dev/svgjs" width="512px" height="512px"><svg width="512px" height="512px" viewBox="0 0 512 512" version="1.1" xmlns="http://www.w3.org/2000/svg" xmlns:xlink="http://www.w3.org/1999/xlink">
    <title>ArtboardVector</title>
    <g id="SvgjsG1005" stroke="none" stroke-width="1" fill="none" fill-rule="evenodd">
        <rect fill="#0D174B" x="0" y="0" width="512" height="512"></rect>
        <path d="M-0.00264660356,295.582354 C38.4015888,269.444282 79.520955,256.375246 123.355452,256.375246 C234.882687,256.375246 221.363973,317.574807 334.80895,317.574807 C410.438934,317.574807 469.502618,245.796596 512,102.240175 L512,512 L-0.00264660356,512 L-0.00264660356,295.582354 Z" id="SvgjsPath1004" fill="#2ECAB3" opacity="0.6"></path>
        <path d="M-0.00264660356,347.630213 C63.372958,385.294128 114.270458,371.790753 152.689854,307.120087 C210.318947,210.114089 306.977657,308.430753 395.230888,238.764249 C454.066375,192.319912 492.989413,127.576138 512,44.532925 L512,512 L-0.00264660356,512 L-0.00264660356,347.630213 Z" id="SvgjsPath1003" fill="#2ECAB3" opacity="0.6"></path>
    </g>
</svg><style>@media (prefers-color-scheme: light) { :root { filter: none; } }
@media (prefers-color-scheme: dark) { :root { filter: none; } }
</style></svg>